<svg width="16" height="16" viewBox="0 0 16 16" fill="none" xmlns="http://www.w3.org/2000/svg">
<path fill-rule="evenodd" clip-rule="evenodd" d="M8 2.27273C4.83691 2.27273 2.27273 4.83691 2.27273 8C2.27273 11.1631 4.83691 13.7273 8 13.7273C11.1631 13.7273 13.7273 11.1631 13.7273 8C13.7273 4.83691 11.1631 2.27273 8 2.27273ZM1 8C1 4.13401 4.13401 1 8 1C11.866 1 15 4.13401 15 8C15 11.866 11.866 15 8 15C4.13401 15 1 11.866 1 8Z" fill="#132056"/>
<path fill-rule="evenodd" clip-rule="evenodd" d="M5.64093 5.64097C5.88944 5.39245 6.29237 5.39245 6.54088 5.64097L7.99999 7.10008L9.45911 5.64097C9.70762 5.39245 10.1105 5.39245 10.3591 5.64097C10.6076 5.88948 10.6076 6.29241 10.3591 6.54092L8.89995 8.00004L10.3591 9.45915C10.6076 9.70767 10.6076 10.1106 10.3591 10.3591C10.1105 10.6076 9.70762 10.6076 9.45911 10.3591L7.99999 8.89999L6.54088 10.3591C6.29237 10.6076 5.88944 10.6076 5.64093 10.3591C5.39241 10.1106 5.39241 9.70767 5.64093 9.45915L7.10004 8.00004L5.64093 6.54092C5.39241 6.29241 5.39241 5.88948 5.64093 5.64097Z" fill="#132056"/>
</svg>
